<?xml version="1.0" standalone="no"?>
<!DOCTYPE svg PUBLIC "-//W3C//DTD SVG 20010904//EN"
 "http://www.w3.org/TR/2001/REC-SVG-20010904/DTD/svg10.dtd">
<svg version="1.0" xmlns="http://www.w3.org/2000/svg"
 width="493.000000pt" height="486.000000pt" viewBox="0 0 493.000000 486.000000"
 preserveAspectRatio="xMidYMid meet">

<g transform="translate(0.000000,486.000000) scale(0.100000,-0.100000)"
fill="#000000" stroke="none">
<path d="M0 2430 l0 -2430 2465 0 2465 0 0 2430 0 2430 -2465 0 -2465 0 0
-2430z m2860 2272 c206 -41 458 -116 467 -139 6 -15 -2 -30 -100 -201 -43 -73
-77 -135 -77 -138 0 -3 -5 -10 -10 -17 -6 -7 -34 -52 -62 -102 -28 -49 -61
-108 -74 -130 -13 -22 -44 -77 -70 -121 -27 -48 -56 -86 -71 -93 -36 -16 -772
-15 -794 2 -16 12 -48 60 -91 137 -23 40 -129 224 -307 533 -35 59 -60 114
-57 123 7 17 27 26 176 70 178 54 177 54 315 79 119 22 151 24 390 21 215 -2
278 -7 365 -24z m-1511 -337 c23 -35 41 -67 41 -69 0 -3 26 -49 59 -103 149
-250 231 -392 231 -401 0 -16 -143 -22 -544 -22 -421 0 -556 6 -556 24 0 43
307 368 443 469 100 76 247 167 269 167 9 0 33 -27 57 -65z m2392 -11 c101
-63 213 -157 349 -294 159 -159 245 -263 236 -285 -5 -13 -81 -15 -538 -15
-293 0 -539 4 -547 9 -16 10 -7 27 163 313 43 73 101 171 129 218 73 125 70
122 122 100 23 -10 62 -31 86 -46z m468 -853 c10 -7 -1 -18 -43 -45 -31 -20
-58 -36 -60 -36 -2 0 -55 -31 -118 -68 -62 -38 -133 -80 -158 -94 -25 -14
-112 -64 -194 -112 -82 -47 -163 -88 -180 -91 -17 -3 -474 -5 -1016 -3 l-985
3 -60 34 c-33 19 -76 44 -95 56 -19 12 -64 38 -100 57 -67 36 -386 223 -453
265 -21 13 -35 28 -32 33 8 13 3474 13 3494 1z m-3371 -203 c97 -55 210 -121
249 -145 40 -23 75 -43 77 -43 15 0 225 -136 244 -158 30 -36 375 -617 692
-1167 48 -82 135 -232 193 -333 59 -101 111 -202 117 -225 10 -46 14 -795 4
-846 -6 -30 -8 -31 -25 -15 -11 9 -19 21 -19 25 0 7 -39 75 -343 599 -71 123
-141 245 -155 269 -14 25 -38 68 -55 95 -16 28 -38 65 -47 81 -34 60 -335 583
-397 690 -35 61 -68 117 -73 125 -5 8 -60 103 -121 210 -61 107 -164 285 -227
395 -64 110 -122 211 -129 225 -8 14 -25 43 -39 65 -13 22 -34 58 -45 80 -12
22 -24 42 -28 45 -10 8 -61 109 -61 120 0 6 2 10 5 10 3 0 85 -46 183 -102z
m3439 88 c-3 -7 -49 -89 -103 -182 -53 -93 -158 -275 -232 -404 -75 -129 -184
-318 -242 -420 -143 -249 -431 -747 -548 -950 -53 -91 -103 -178 -112 -195 -8
-16 -38 -68 -66 -115 -28 -47 -138 -237 -245 -422 -107 -186 -197 -338 -201
-338 -5 0 -8 199 -8 443 l0 443 91 159 c119 207 138 241 508 875 172 294 324
555 339 580 34 61 137 159 198 190 43 22 377 216 539 313 63 38 91 46 82 23z
m-3836 -153 c25 -43 113 -197 194 -343 82 -146 179 -320 217 -388 38 -67 66
-126 64 -131 -9 -14 -144 -21 -431 -22 -148 -1 -275 -1 -281 0 -6 1 -17 26
-24 56 -11 44 -11 66 -2 106 7 28 12 77 12 109 0 32 4 80 9 107 6 26 15 80 22
118 21 126 143 465 167 465 4 0 28 -35 53 -77z m4159 -5 c98 -212 149 -445
153 -703 l2 -170 -29 -5 c-51 -9 -685 5 -695 15 -7 7 15 55 62 140 177 315
242 432 258 460 10 17 57 101 105 188 49 86 92 157 97 157 4 0 26 -37 47 -82z
m-1363 -377 c-2 -10 -63 -119 -134 -242 -72 -123 -206 -354 -298 -514 -327
-565 -335 -577 -350 -565 -8 7 -51 78 -97 158 -46 80 -95 167 -109 192 -15 25
-52 90 -84 145 -31 55 -66 116 -78 135 -11 19 -40 71 -65 115 -37 68 -151 264
-298 518 -19 32 -32 63 -28 68 3 5 320 9 776 9 745 0 770 -1 765 -19z m1542
-735 c6 -7 9 -20 6 -27 -3 -8 -9 -41 -14 -74 -12 -81 -63 -271 -101 -375 -39
-106 -123 -284 -178 -374 -23 -37 -42 -72 -42 -76 0 -5 -4 -10 -8 -12 -5 -1
-26 -28 -48 -58 -61 -87 -129 -168 -224 -266 -102 -106 -238 -224 -257 -224
-16 0 -36 31 -178 285 -65 116 -142 252 -171 303 -30 51 -54 95 -54 98 0 2
-12 23 -26 46 -33 52 -29 73 32 175 25 43 62 105 82 138 19 33 66 110 104 171
37 61 68 113 68 117 0 3 20 38 45 76 29 44 55 73 72 79 17 6 195 11 454 11
350 1 429 -1 438 -13z m-3706 -5 c26 -10 40 -32 244 -376 181 -305 183 -310
183 -330 0 -15 -30 -75 -104 -207 -112 -198 -152 -268 -171 -298 -12 -19 -47
-82 -79 -140 -31 -58 -65 -115 -74 -128 l-18 -23 -49 33 c-76 50 -314 291
-394 399 -206 280 -337 558 -400 854 -12 55 -27 119 -33 142 -19 77 -45 72
394 76 216 1 412 3 435 5 23 1 53 -2 66 -7z m2275 -1120 c31 -48 64 -101 73
-117 9 -16 67 -112 128 -213 61 -101 111 -190 111 -197 0 -44 -350 -209 -558
-264 -145 -39 -372 -70 -372 -51 0 10 193 339 398 681 11 19 35 60 53 90 53
89 99 160 104 160 3 0 31 -40 63 -89z m-1593 -48 c39 -64 77 -128 85 -143 9
-14 51 -85 93 -156 98 -163 80 -133 191 -320 53 -88 98 -168 102 -177 11 -29
-143 -23 -263 9 -54 14 -116 30 -138 36 -22 5 -49 14 -60 19 -11 4 -51 20 -90
34 -171 63 -375 173 -375 202 0 11 210 373 237 409 11 14 25 38 78 127 25 42
51 77 58 77 7 0 44 -52 82 -117z"/>
<path d="M2220 4674 c-182 -23 -277 -44 -472 -106 -53 -17 -68 -26 -68 -41 0
-14 313 -571 397 -705 l14 -22 381 2 381 3 92 160 c50 88 135 234 187 325 126
219 135 238 117 254 -35 34 -300 99 -509 127 -167 22 -364 23 -520 3z"/>
<path d="M1205 4333 c-105 -65 -247 -177 -351 -278 -64 -62 -174 -195 -174
-211 0 -12 71 -14 455 -14 427 0 455 1 455 18 -1 25 -294 517 -311 520 -8 1
-41 -14 -74 -35z"/>
<path d="M3594 4318 c-9 -18 -58 -103 -109 -188 -51 -85 -104 -175 -117 -200
-13 -25 -32 -58 -43 -73 -16 -24 -16 -30 -4 -38 8 -5 204 -8 454 -6 l440 2 3
26 c2 21 -20 49 -130 161 -129 131 -339 308 -365 308 -7 0 -13 4 -13 9 0 10
-54 31 -81 31 -11 0 -26 -14 -35 -32z"/>
<path d="M900 3446 c0 -14 60 -51 375 -232 l190 -109 992 -3 993 -2 52 26 c59
30 448 257 491 286 72 50 143 48 -1533 48 -1318 0 -1560 -2 -1560 -14z"/>
<path d="M790 3247 c0 -12 27 -71 50 -107 11 -18 101 -175 285 -495 76 -132
150 -260 165 -285 15 -25 45 -76 65 -115 21 -38 43 -77 50 -85 6 -8 46 -76 88
-150 43 -74 82 -142 87 -150 5 -8 44 -76 86 -150 42 -74 94 -165 115 -202 21
-37 47 -82 57 -100 11 -18 45 -78 77 -133 32 -55 109 -190 173 -300 209 -364
252 -435 268 -435 13 0 14 45 12 353 l-3 352 -117 198 c-65 109 -118 199 -118
202 0 2 -41 73 -91 157 -51 84 -103 173 -117 198 -14 25 -70 122 -125 215 -55
94 -117 198 -136 232 -92 160 -120 206 -188 321 -40 67 -85 136 -100 152 -14
17 -94 70 -177 119 -204 119 -276 161 -281 161 -2 0 -24 14 -48 30 -48 32 -77
38 -77 17z"/>
<path d="M4020 3205 c-58 -35 -117 -70 -131 -77 -126 -64 -282 -161 -320 -200
-25 -25 -68 -84 -94 -130 -27 -46 -103 -175 -168 -288 -202 -344 -328 -562
-367 -630 -20 -36 -48 -84 -63 -107 -15 -24 -40 -67 -56 -95 -16 -29 -77 -134
-135 -233 -58 -99 -111 -195 -116 -215 -6 -19 -10 -176 -10 -352 0 -394 -3
-391 123 -170 191 333 387 672 411 711 14 22 26 43 26 46 0 2 29 54 65 113 35
60 108 185 161 278 167 292 248 433 361 629 61 105 162 280 225 390 64 110
138 240 167 289 28 49 51 93 51 97 0 18 -28 6 -130 -56z"/>
<path d="M348 3123 c-56 -146 -88 -285 -109 -478 -12 -108 -17 -241 -9 -247 3
-3 141 -2 308 0 256 4 302 7 302 19 0 15 -7 27 -110 208 -31 55 -115 205 -186
332 -150 270 -154 274 -196 166z"/>
<path d="M4486 3112 c-171 -304 -332 -594 -354 -634 -42 -79 -44 -78 206 -78
121 0 254 -3 297 -7 l78 -6 -6 159 c-9 222 -38 378 -107 567 -23 61 -37 87
-48 87 -11 0 -35 -33 -66 -88z"/>
<path d="M1780 2807 c0 -21 21 -58 280 -507 62 -107 121 -211 132 -230 10 -19
27 -48 37 -65 10 -16 28 -48 41 -70 179 -317 192 -336 211 -304 29 46 193 329
210 361 8 15 56 98 108 185 51 87 105 178 119 203 13 25 46 81 72 125 154 261
172 304 133 319 -9 4 -315 6 -680 5 -658 -2 -663 -2 -663 -22z"/>
<path d="M3888 2063 c-32 -36 -378 -625 -378 -643 0 -10 40 -87 88 -172 49
-84 137 -240 197 -346 59 -107 114 -196 121 -199 7 -2 19 -1 27 4 58 33 296
279 381 393 210 283 362 636 401 928 l7 52 -415 0 c-382 0 -415 -1 -429 -17z"/>
<path d="M226 2062 c-3 -5 -1 -24 4 -43 5 -19 19 -79 31 -134 70 -319 258
-688 463 -909 20 -21 36 -42 36 -45 0 -10 166 -170 217 -210 62 -47 77 -41
127 54 24 44 68 123 98 175 52 90 72 125 134 238 15 26 46 81 70 123 24 42 44
83 44 91 0 19 -52 110 -240 426 l-145 242 -417 0 c-229 0 -419 -4 -422 -8z"/>
<path d="M3225 908 c-26 -46 -69 -119 -95 -163 -26 -44 -104 -176 -174 -293
-131 -220 -142 -252 -91 -252 44 0 221 40 330 74 129 41 398 174 403 199 4 20
-296 517 -312 517 -7 0 -34 -37 -61 -82z"/>
<path d="M1637 933 c-27 -43 -199 -330 -230 -383 -36 -63 -47 -85 -47 -97 0
-16 263 -144 372 -182 132 -46 318 -95 363 -95 29 -1 40 3 43 15 3 14 -78 154
-361 627 -50 83 -97 152 -104 152 -7 0 -23 -17 -36 -37z"/>
</g>
</svg>
